<?xml version="1.0" encoding="utf-8"?>
<!-- Generator: Adobe Illustrator 19.2.0, SVG Export Plug-In . SVG Version: 6.00 Build 0)  -->
<svg version="1.1" id="Layer_1" xmlns="http://www.w3.org/2000/svg" xmlns:xlink="http://www.w3.org/1999/xlink" x="0px" y="0px"
	 viewBox="0 0 203.3 230.5" style="enable-background:new 0 0 203.3 230.5;" xml:space="preserve">
<style type="text/css">
	.st0{fill:none;}
	.st1{fill:#FFFFFF;}
</style>
<title>people</title>
<path class="st0" d="M0.1,115c0,17.2,0.2,34.3-0.1,51.5c-0.1,5.2,1.3,8,6.1,10.7c30.4,17,60.5,34.3,90.6,51.7
	c3.7,2.1,6.6,2.1,10-0.1c3.7-2.4,7.7-4.5,11.5-6.7c26.5-15.1,52.9-30.4,79.5-45.3c4-2.2,5.5-4.4,5.4-9c-0.2-34.7-0.2-69.3,0-104
	c0-5.1-1.3-7.7-5.9-10.3c-30.3-17-60.5-34.3-90.6-51.8c-3.8-2.2-6.9-2.3-10.5,0.1s-7.6,4.5-11.5,6.8c-27.5,15.7-55,31.3-82.5,47.2
	c-1.2,0.7-2.1,3.1-2.1,4.8C0.1,78.7,0.1,96.8,0.1,115z"/>
<path class="st1" d="M0.1,115c0-18.2,0-36.3,0.1-54.5c0-1.6,0.9-4.1,2.1-4.8c27.4-15.8,55-31.5,82.5-47.2c3.9-2.2,7.8-4.3,11.5-6.8
	s6.7-2.3,10.5-0.1c30.1,17.4,60.3,34.8,90.6,51.8c4.6,2.6,5.9,5.2,5.9,10.3c-0.3,34.7-0.3,69.3,0,104c0,4.6-1.5,6.8-5.4,9
	c-26.6,14.9-53,30.2-79.5,45.3c-3.9,2.2-7.8,4.3-11.5,6.7c-3.5,2.3-6.4,2.3-10,0.1c-30.1-17.4-60.3-34.8-90.6-51.7
	c-4.8-2.7-6.2-5.5-6.1-10.7C0.4,149.3,0.1,132.2,0.1,115z M198.3,115.9c0-16.8-0.2-33.7,0.1-50.5c0.1-4.6-1.8-6.7-5.3-8.7
	C164,40.2,134.9,23.6,105.9,7c-3.4-2-5.8-1.6-8.9,0.3c-12.4,7.3-24.8,14.3-37.3,21.4C42.9,38.2,26,47.8,9,57.3
	c-3.1,1.7-4.1,3.8-4.1,7.4c0.2,33.3,0.2,66.6,0,100c0,4.7,1.5,7,5.4,9.2c29,16.3,57.9,32.8,86.7,49.4c3.4,2,5.9,1.9,9.3-0.1
	c12.3-7.3,24.8-14.3,37.3-21.4c17.3-9.9,34.6-19.7,51.8-29.8c1.5-0.9,2.5-2.5,2.7-4.3C198.4,150.5,198.3,133.2,198.3,115.9
	L198.3,115.9z"/>
<path class="st0" d="M198.3,115.9c0,17.3,0.1,34.7-0.1,52c-0.2,1.7-1.2,3.3-2.7,4.3c-17.2,10-34.5,19.9-51.8,29.8
	c-12.5,7.1-25,14.1-37.3,21.4c-3.4,2-5.8,2-9.3,0.1c-28.8-16.6-57.7-33.1-86.7-49.4c-3.9-2.2-5.5-4.5-5.4-9.2
	c0.3-33.3,0.2-66.6,0-100c0-3.6,1-5.7,4.1-7.4c17-9.5,33.8-19.1,50.7-28.7C72.2,21.5,84.7,14.5,97,7.2c3.1-1.8,5.5-2.2,8.9-0.3
	c29,16.7,58,33.3,87.1,49.7c3.6,2,5.4,4.2,5.3,8.7C198.1,82.2,198.3,99,198.3,115.9z M60.7,155.7c27,0,52.8,0,78.5-0.1
	c1,0,2.8-1.7,2.8-2.4c-0.7-5.5-1.2-11.2-2.9-16.4c-0.7-2.2-4.1-3.8-6.7-5c-4.3-2-9-3.2-13.3-5.2c-1.3-0.6-2.9-3.3-2.5-4.4
	c1.3-3.6,3.6-6.9,5.3-10.3c1.2-2.3,3-4.9,2.9-7.2c-0.3-5.6-0.6-11.4-2.7-16.5c-1.9-4.3-5-8-8.9-10.6c-7.8-5.3-15.7-2.7-23.3,1.3
	c-7.4,3.8-10.5,9.6-9.1,17.9c0.3,1.1,0.4,2.3,0.2,3.4c-1.6,5.1,0.1,8.8,3,13.3c5.2,7.9,6.1,13.4-4.5,16.4c-2.2,0.6-4.4,1.7-6.6,1.8
	c-6.4,0.3-9,4.5-10.3,9.7C61.4,145.7,61.3,150.3,60.7,155.7z"/>
<path class="st1" d="M60.7,155.7c0.6-5.4,0.7-10.1,1.8-14.5c1.3-5.2,3.9-9.4,10.3-9.7c2.2-0.1,4.4-1.2,6.6-1.8
	c10.5-2.9,9.6-8.5,4.5-16.4c-2.9-4.4-4.6-8.2-3-13.3c0.2-1.1,0.1-2.3-0.2-3.4c-1.3-8.2,1.7-14,9.1-17.9c7.6-3.9,15.6-6.6,23.3-1.3
	c3.9,2.6,7,6.3,8.9,10.6c2,5.1,2.4,10.9,2.7,16.5c0.1,2.4-1.7,4.9-2.9,7.2c-1.7,3.5-4,6.7-5.3,10.3c-0.4,1.1,1.2,3.8,2.5,4.4
	c4.3,2,9,3.2,13.3,5.2c2.5,1.2,5.9,2.8,6.7,5c1.7,5.2,2.2,10.9,2.9,16.4c0.1,0.7-1.8,2.4-2.8,2.4C113.4,155.8,87.6,155.7,60.7,155.7
	z M66.3,150.4H137c-0.3-2.6-0.5-4.9-1-7.2c-0.8-3.5-1.8-6.2-6.3-7.1s-8.6-3.1-12.7-5.2c-5.8-2.9-7-6.5-4.2-12.5
	c1.8-3.8,4.1-7.3,5.9-11.1c0.6-1.3,0.9-2.8,0.8-4.2c-0.2-2.4-1.1-4.8-1.2-7.1c-0.3-8.4-2.8-12.8-9.5-15.2
	c-5.2-1.9-17.3,0.8-20.7,4.7c-1.8,2.1-3.3,19.8-1.9,22.1c1.9,3,3.6,6.2,5.1,9.5c3,7.5,1.4,12-5.7,15.4c-3.5,1.7-7.3,3.5-11.1,3.9
	c-5.3,0.5-6.5,3.7-7.2,7.8C66.8,146.2,66.6,148.2,66.3,150.4L66.3,150.4z"/>
<path class="st0" d="M66.3,150.4c0.3-2.3,0.6-4.2,0.9-6.2c0.7-4.1,1.9-7.3,7.2-7.8c3.8-0.4,7.5-2.2,11.1-3.9
	c7.1-3.3,8.8-7.9,5.7-15.4c-1.5-3.3-3.2-6.4-5.1-9.5c-1.3-2.3,0.1-20,1.9-22.1c3.4-3.9,15.6-6.6,20.7-4.7c6.7,2.5,9.3,6.8,9.5,15.2
	c0.1,2.4,1,4.7,1.2,7.1c0.1,1.4-0.1,2.9-0.8,4.2c-1.8,3.8-4.1,7.3-5.9,11.1c-2.9,5.9-1.7,9.6,4.2,12.5c4.1,2,8.3,4.3,12.7,5.2
	s5.5,3.6,6.3,7.1c0.5,2.2,0.6,4.6,1,7.2L66.3,150.4L66.3,150.4z"/>
</svg>
