<?xml version="1.0" encoding="utf-8"?>
<!-- Generator: Adobe Illustrator 19.2.0, SVG Export Plug-In . SVG Version: 6.00 Build 0)  -->
<svg version="1.1" id="Layer_1" xmlns="http://www.w3.org/2000/svg" xmlns:xlink="http://www.w3.org/1999/xlink" x="0px" y="0px"
	 viewBox="0 0 203.1 230.5" style="enable-background:new 0 0 203.1 230.5;" xml:space="preserve">
<style type="text/css">
	.st0{fill:none;}
	.st1{fill:#FFFFFF;}
</style>
<title>peopleMulti</title>
<path class="st0" d="M0,173.9c2.2,1.1,4,2,5.7,3c30.2,17.3,60.4,34.6,90.6,51.9c3.5,2,6.4,2.3,10,0.2c10-6,20.2-11.6,30.3-17.4
	c20.5-11.8,41-23.7,61.7-35.2c3.6-2,4.8-3.9,4.7-7.8C202.9,133,203,97.3,203,61.7v-5.1c-2.2-1.1-4-2-5.7-3
	C167.1,36.3,136.8,19,106.6,1.6c-3.5-2-6.4-2.3-10-0.2C86.9,7.3,77,12.7,67.2,18.3c-21.7,12.4-43.4,24.7-65,37.3
	c-1.1,0.7-2,2.8-2,4.3c-0.1,13.7-0.1,27.3-0.1,41C0,125.1,0,149.5,0,173.9z"/>
<path class="st1" d="M0,173.9c0-24.5,0-48.8,0-73.1c0-13.7-0.1-27.3,0.1-41c0-1.5,0.9-3.6,2-4.3c21.6-12.5,43.3-24.9,65-37.3
	c9.8-5.6,19.8-11.1,29.5-16.9c3.6-2.2,6.5-1.9,10,0.2c30.2,17.4,60.4,34.7,90.6,51.9c1.7,1,3.5,1.9,5.7,3v5.1
	c0,35.6-0.1,71.3,0.1,106.9c0,4-1.2,5.8-4.7,7.8c-20.6,11.5-41,23.5-61.6,35.2c-10.1,5.8-20.3,11.4-30.3,17.4
	c-3.6,2.2-6.5,1.9-10-0.2C66.2,211.5,36,194.2,5.8,176.9C4,175.9,2.2,175.1,0,173.9z M5,115.1c0,14.7,0.6,29.3-0.2,44
	c-0.5,8.7,2.4,13.2,10.1,17.4c28,15.2,55.4,31.4,83,47.3c2.8,1.6,5,1.4,7.5-0.1c16-9.3,32.1-18.6,48.2-27.8c14-8,28-15.9,41.9-24
	c1.4-1,2.4-2.6,2.5-4.4c0.1-31-0.3-62,0.3-92.9c0.2-10.1-0.6-18.1-11.9-21.1c-0.9-0.2-1.6-1.1-2.4-1.6c-26.2-15-52.5-30-78.7-45
	c-2.3-1.5-5.3-1.5-7.5,0C68.5,23.5,39.3,40.2,10,56.8c-3.3,1.9-5.2,3.9-5.1,8.4C5.2,81.8,5,98.4,5,115.1L5,115.1z"/>
<path class="st0" d="M5,115.1c0-16.7,0.2-33.3-0.1-50c-0.1-4.4,1.8-6.5,5.1-8.4c29.3-16.6,58.5-33.3,87.7-50c2.3-1.5,5.3-1.5,7.5,0
	c26.2,15.1,52.4,30.1,78.7,45c0.9,0.5,1.5,1.4,2.4,1.6c11.3,3,12.1,11,11.9,21.1c-0.6,31-0.2,62-0.3,92.9c-0.1,1.8-1.1,3.4-2.5,4.4
	c-13.9,8.1-27.9,16-41.9,24c-16.1,9.2-32.2,18.5-48.2,27.8c-2.6,1.5-4.7,1.7-7.5,0.1c-27.6-16-55-32.1-83-47.3
	c-7.7-4.2-10.6-8.7-10.1-17.4C5.6,144.4,5,129.7,5,115.1z M85,80.9c-0.9-1.3-1.4-3.4-2.6-3.8c-11.8-3.8-26.1-0.8-28.8,15.4
	c-1.1,6.7-3.6,13.8,3,19.9c2.4,2.2,3,6.3,4.9,10.4c-5.8,2.1-11.3,3.7-16.5,6.1c-2.8,1.3-6.5,3.2-7.4,5.8c-1.9,5.2-2.3,10.9-3.5,17.1
	c8,0,14.5-0.2,20.9,0.1c3.9,0.1,4.5-1.5,3.5-5.2H40c0.4-1.1,0.7-2.2,0.9-3.4c0-5.8,2.2-9.2,8.4-9.9c3-0.4,5.9-1.9,8.8-3.3
	c8.9-4.2,9.6-6.5,5.3-15.3c-1.4-2.8-3.3-5.4-4.8-8.2c-0.6-1.2-0.9-2.6-0.8-4c0.2-2.2,1-4.4,1.1-6.6c0.2-11.3,8.2-17.2,19.3-14.4
	c2.1,0.5,4.6-0.5,6.9-0.8c-3.5,5.3-6.8,10.7-4.3,17.5c0.1,0.7,0,1.3-0.3,1.9c-1.4,5-0.5,9.1,3.2,13.2c6,6.8,3.9,13.6-4.6,16.4
	c-2.3,0.8-4.7,1.8-7.1,1.9c-5.7,0.3-8.3,4-9.5,8.6c-1.2,4.9-1.5,9.9-2.2,15.1h81.2l1-4.9H166c0-3.1,0.2-5.7,0-8.3
	c-0.8-9.5-3.8-12.8-12.8-15.4c-3.6-1.1-7.1-2.5-10.6-4.1c-2.3-1-3.3-2.5-1.6-5.1c2-3,3.7-6.1,5.6-9.2c4.3-7.2,1.8-14.6-0.2-21.5
	c-3.9-13.7-19.1-15.9-28.5-11c-3.5,1.8-5,1.2-7.8,0.1c-5.5-2.2-11-1.5-16.3,0.9C90.9,78.1,87.9,79.5,85,80.9L85,80.9z"/>
<path class="st1" d="M85,80.9c3-1.4,5.9-2.8,8.9-4.1c5.3-2.4,10.8-3.1,16.3-0.9c2.8,1.1,4.3,1.7,7.8-0.1c9.4-4.9,24.5-2.7,28.5,11
	c2,6.9,4.5,14.3,0.2,21.5c-1.9,3.1-3.6,6.2-5.6,9.2c-1.7,2.5-0.7,4.1,1.6,5.1c3.4,1.6,6.9,3,10.5,4.1c9.1,2.6,12.1,6,12.8,15.4
	c0.2,2.6,0,5.3,0,8.3h-23.4l-1,4.9H60.5c0.7-5.2,1-10.3,2.2-15.1c1.2-4.7,3.8-8.4,9.5-8.6c2.4-0.1,4.8-1.2,7.1-1.9
	c8.5-2.8,10.6-9.6,4.6-16.4c-3.6-4.1-4.6-8.2-3.2-13.2c0.3-0.6,0.4-1.3,0.3-1.9c-2.5-6.8,0.7-12.2,4.3-17.5L85,80.9z M66.1,150.5
	h70.6c-0.3-2.4-0.4-4.5-0.8-6.6c-0.8-3.8-1.8-6.9-6.8-7.8c-4.5-0.9-8.8-3.3-13.1-5.4c-5.2-2.5-6.4-6.1-3.9-11.4
	c1.9-4.1,4.4-7.9,6.4-11.9c0.6-1.2,0.9-2.4,0.8-3.7c-0.3-3.2-1.2-6.4-1.3-9.6c-0.4-9.8-8.9-16.1-18.5-13.4c-2.8,0.8-5.5,2.1-8.3,3
	c-3.8,1.3-5.3,3.9-5.4,7.8c-0.1,4.1-0.7,8.2-0.8,12.3c0,1.5,0.3,2.9,1,4.3c1.5,3,3.6,5.8,4.8,8.9c3.2,7.9,1.5,12.1-6.3,15.8
	c-3.2,1.5-6.6,3.3-10,3.6c-5.9,0.5-7.2,4.2-7.7,8.9C66.8,146.9,66.5,148.5,66.1,150.5z M160.7,145.8c-0.3-2.5-0.4-4.6-0.8-6.6
	c-0.7-3.5-2-6.1-6.4-6.9s-8.8-2.8-13-4.8c-5.6-2.7-6.9-6.7-4.1-12.2c1.8-3.6,4.1-6.9,6-10.5c0.6-1.4,0.8-2.9,0.6-4.4
	c-0.1-1.9-1.1-3.8-0.9-5.6c1.7-13.4-13.8-20-22.6-13.8c1.5,4.4,3.9,8.4,4.1,12.6c0.3,5.4,3.1,11-0.4,16.4c-2.1,3.2-3.8,6.7-5.9,10
	c-2.3,3.7-0.9,5.8,2.6,7.2c4.1,1.6,8.2,3.6,12.5,4.4c4.1,0.8,5.9,3.3,7.4,6.4c1.2,2.4,1.2,6.3,3,7.3c2.3,1.3,5.8,0.4,8.8,0.5
	S157.6,145.7,160.7,145.8L160.7,145.8z"/>
<path class="st1" d="M85.1,80.7c-2.3,0.3-4.8,1.3-6.9,0.8C67.1,78.8,59.1,84.7,58.9,96c0,2.2-0.9,4.4-1.1,6.6
	c-0.1,1.4,0.2,2.8,0.8,4c1.4,2.8,3.4,5.4,4.8,8.2c4.4,8.8,3.6,11-5.3,15.3c-2.8,1.3-5.8,2.9-8.8,3.3c-6.2,0.7-8.4,4.2-8.4,9.9
	c-0.2,1.2-0.5,2.3-0.9,3.4h18.5c1.1,3.7,0.5,5.3-3.5,5.2c-6.5-0.2-12.9-0.1-20.9-0.1c1.1-6.2,1.5-12,3.5-17.1c1-2.5,4.6-4.5,7.4-5.8
	c5.2-2.3,10.7-4,16.5-6.1c-1.8-4.1-2.4-8.2-4.9-10.4c-6.6-6.1-4.1-13.2-3-19.9c2.7-16.1,16.9-19.2,28.8-15.4
	c1.1,0.4,1.7,2.5,2.6,3.8L85.1,80.7z"/>
<path class="st0" d="M66.1,150.5c0.3-2,0.7-3.5,0.9-5.2c0.5-4.8,1.8-8.4,7.7-8.9c3.4-0.3,6.8-2.1,10-3.6c7.7-3.7,9.4-7.8,6.3-15.8
	c-1.3-3.1-3.3-5.9-4.8-8.9c-0.7-1.3-1-2.8-1-4.3c0.1-4.1,0.7-8.2,0.8-12.3c0.1-3.9,1.6-6.5,5.4-7.8c2.8-0.9,5.4-2.2,8.3-3
	c9.6-2.7,18,3.6,18.5,13.4c0.1,3.2,1,6.4,1.3,9.6c0.1,1.3-0.2,2.6-0.8,3.7c-2,4-4.5,7.8-6.4,11.9c-2.5,5.3-1.3,8.8,3.9,11.3
	c4.3,2,8.5,4.5,13.1,5.4c4.9,0.9,5.9,4.1,6.8,7.8c0.4,2.1,0.5,4.2,0.8,6.6L66.1,150.5L66.1,150.5z"/>
<path class="st0" d="M160.7,145.7c-3.1,0-6.1,0-9,0s-6.5,0.9-8.8-0.5c-1.8-1-1.9-4.9-3-7.3c-1.5-3.1-3.4-5.6-7.4-6.4
	c-4.3-0.8-8.4-2.8-12.5-4.4c-3.5-1.4-4.9-3.5-2.6-7.2c2.1-3.3,3.8-6.8,5.9-10c3.5-5.4,0.7-11,0.4-16.4c-0.2-4.2-2.6-8.3-4.1-12.6
	c8.9-6.2,24.4,0.5,22.6,13.8c-0.2,1.8,0.8,3.7,0.9,5.6c0.2,1.5,0,3-0.6,4.4c-1.8,3.6-4.1,6.9-6,10.5c-2.8,5.5-1.5,9.5,4.1,12.2
	c4.1,2,8.5,4,13,4.8s5.7,3.4,6.4,6.9C160.3,141.2,160.4,143.3,160.7,145.7z"/>
</svg>
